<svg id="Layer_1" data-name="Layer 1" xmlns="http://www.w3.org/2000/svg" fill="none" viewBox="0 0 139.64 136.19"><defs></defs><title>github</title>
<path class="cls-1" d="M-309.4,181.81a69.83,69.83,0,0,0-69.82,69.82,69.84,69.84,0,0,0,47.75,66.25c3.49.65,4.77-1.52,4.77-3.36,0-1.66-.06-7.16-.09-13-19.43,4.23-23.53-8.24-23.53-8.24-3.17-8.07-7.75-10.21-7.75-10.21-6.33-4.34.48-4.25.48-4.25,7,.5,10.7,7.2,10.7,7.2,6.23,10.67,16.34,7.59,20.32,5.8.63-4.51,2.44-7.59,4.43-9.33-15.5-1.77-31.81-7.76-31.81-34.51a27,27,0,0,1,7.2-18.74c-.73-1.76-3.12-8.86.67-18.48,0,0,5.87-1.87,19.21,7.16a67.35,67.35,0,0,1,17.47-2.35,67.5,67.5,0,0,1,17.49,2.35c13.33-9,19.18-7.16,19.18-7.16,3.8,9.62,1.41,16.72.69,18.48A27,27,0,0,1-264.85,248c0,26.82-16.34,32.72-31.89,34.45,2.51,2.17,4.74,6.42,4.74,12.93,0,9.34-.08,16.86-.08,19.16,0,1.86,1.26,4,4.79,3.35a69.82,69.82,0,0,0,47.71-66.24A69.82,69.82,0,0,0-309.4,181.81Z" transform="translate(379.22 -181.81)" fill="white"/>
<path class="cls-2" d="M-352.77,282.05c-.15.35-.7.46-1.2.22s-.79-.7-.62-1,.69-.46,1.2-.22.79.71.62,1.05Zm-.86-.63" transform="translate(379.22 -181.81)" fill="white"/>
<path class="cls-2" d="M-349.94,285.21c-.34.31-1,.16-1.43-.32s-.54-1.14-.2-1.45,1-.17,1.43.32.54,1.14.2,1.45Zm-.67-.72" transform="translate(379.22 -181.81)" fill="white"/>
<path class="cls-2" d="M-347.19,289.23c-.43.3-1.13,0-1.56-.6s-.43-1.37,0-1.67,1.12,0,1.56.59.43,1.38,0,1.68Zm0,0" transform="translate(379.22 -181.81)" fill="white"/>
<path class="cls-2" d="M-343.42,293.11c-.38.43-1.2.31-1.79-.26s-.78-1.36-.4-1.79,1.21-.3,1.81.27.79,1.37.38,1.78Zm0,0" transform="translate(379.22 -181.81)" fill="white"/>
<path class="cls-2" d="M-338.22,295.37c-.17.55-.95.8-1.74.56s-1.31-.88-1.15-1.43,1-.81,1.75-.56,1.31.87,1.14,1.43Zm0,0" transform="translate(379.22 -181.81)" fill="white"/>
<path class="cls-2" d="M-332.5,295.79c0,.57-.65,1-1.48,1.06s-1.51-.45-1.52-1,.65-1.06,1.49-1.07,1.51.45,1.51,1Zm0,0" transform="translate(379.22 -181.81)" fill="white"/>
<path class="cls-2" d="M-327.19,294.88c.1.57-.47,1.14-1.3,1.3s-1.56-.2-1.66-.76.49-1.15,1.29-1.3,1.57.19,1.67.76Zm0,0" transform="translate(379.22 -181.81)" fill="white"/></svg>